{
 "accessors": [
  {
   "componentType": 5126,
   "type": "VEC3",
   "count": 4512,
   "max": [
    0.718271017074585,
    0.2320770025253296,
    0.9103000164031982
   ],
   "min": [
    -0.30959999561309814,
    0.059390999376773834,
    -0.7569569945335388
   ],
   "bufferView": 2
  },
  {
   "componentType": 5126,
   "type": "VEC3",
   "count": 4512,
   "bufferView": 3
  },
  {
   "componentType": 5126,
   "type": "VEC2",
   "count": 4512,
   "bufferView": 4
  },
  {
   "componentType": 5123,
   "type": "SCALAR",
   "count": 6669,
   "bufferView": 5
  },
  {
   "componentType": 5123,
   "type": "SCALAR",
   "count": 81,
   "bufferView": 6
  }
 ],
 "asset": {
  "version": "2.0",
  "generator": "clara.io"
 },
 "bufferViews": [
  {
   "buffer": 0,
   "byteOffset": 0,
   "byteLength": 482110
  },
  {
   "buffer": 0,
   "byteOffset": 482112,
   "byteLength": 1348693
  },
  {
   "buffer": 0,
   "byteOffset": 1830808,
   "byteLength": 54144,
   "target": 34962,
   "byteStride": 12
  },
  {
   "buffer": 0,
   "byteOffset": 1884952,
   "byteLength": 54144,
   "target": 34962,
   "byteStride": 12
  },
  {
   "buffer": 0,
   "byteOffset": 1939096,
   "byteLength": 36096,
   "target": 34962,
   "byteStride": 8
  },
  {
   "buffer": 0,
   "byteOffset": 1975192,
   "byteLength": 13338,
   "target": 34963
  },
  {
   "buffer": 0,
   "byteOffset": 1988532,
   "byteLength": 162,
   "target": 34963
  }
 ],
 "buffers": [
  {
   "byteLength": 1988696,
   "uri": "data:application/octet-stream;base64,"
  }
 ],
 "images": [
  {
   "name": "f18e512d71668aade20063360e171f7e113853ea_900.jpg",
   "bufferView": 0,
   "mimeType": "image/jpeg"
  },
  {
   "name": "bread_texture1625.jpg",
   "bufferView": 1,
   "mimeType": "image/jpeg"
  }
 ],
 "materials": [
  {
   "name": "Bread",
   "pbrMetallicRoughness": {
    "baseColorTexture": {
     "index": 1,
     "texCoord": 0
    },
    "roughnessFactor": 0.1431,
    "metallicFactor": 0
   }
  },
  {
   "name": "Not Bread",
   "pbrMetallicRoughness": {
    "baseColorTexture": {
     "index": 0,
     "texCoord": 0
    },
    "roughnessFactor": 0.1431,
    "metallicFactor": 0
   }
  }
 ],
 "meshes": [
  {
   "primitives": [
    {
     "indices": 3,
     "material": 0,
     "mode": 4,
     "attributes": {
      "POSITION": 0,
      "NORMAL": 1,
      "TEXCOORD_0": 2
     }
    },
    {
     "indices": 4,
     "material": 1,
     "mode": 4,
     "attributes": {
      "POSITION": 0,
      "NORMAL": 1,
      "TEXCOORD_0": 2
     }
    }
   ]
  }
 ],
 "nodes": [
  {
   "name": "Pizza Slice",
   "children": [
    1
   ]
  },
  {
   "name": "Pizza",
   "mesh": 0
  }
 ],
 "samplers": [
  {
   "magFilter": 9729,
   "minFilter": 9987,
   "wrapS": 10497,
   "wrapT": 10497
  }
 ],
 "scene": 0,
 "scenes": [
  {
   "nodes": [
    0
   ]
  }
 ],
 "textures": [
  {
   "sampler": 0,
   "source": 0
  },
  {
   "sampler": 0,
   "source": 1
  }
 ]
}